<svg xmlns="http://www.w3.org/2000/svg" width="120" height="58" viewBox="0 0 120 58">
    <g fill="none" fill-rule="evenodd">
        <path fill="#FFF" d="M19.916 57.983c-2.76 0-5.104-.91-7.029-2.728C10.962 53.435 10 51.223 10 48.617c0-2.607.962-4.82 2.887-6.639s4.268-2.728 7.03-2.728c1.997 0 3.76.435 5.286 1.306 1.526.87 2.632 2.071 3.317 3.602.168.344.188.662.059.956-.13.294-.407.502-.834.624l-3.418 1.015c-.336.1-.622.128-.858.083-.236-.044-.522-.26-.859-.649-.325-.399-.718-.701-1.178-.906-.46-.205-.966-.308-1.516-.308-1.01 0-1.868.355-2.576 1.065-.707.71-1.06 1.57-1.06 2.579 0 1.009.353 1.868 1.06 2.578.708.71 1.566 1.065 2.576 1.065.55 0 1.055-.102 1.516-.308.46-.205.853-.507 1.178-.906.348-.389.637-.605.867-.65.23-.044.514-.016.85.084l3.418 1.015c.427.122.704.33.834.624.129.294.109.613-.06.956-.684 1.531-1.79 2.732-3.316 3.602-1.527.871-3.289 1.306-5.287 1.306zM30.33 56.62V33.244c0-.244.079-.444.236-.6.157-.155.359-.232.606-.232h4.58c.246 0 .448.077.605.233.158.155.236.355.236.599v23.375c0 .233-.081.433-.244.599-.163.166-.356.25-.58.25h-4.563c-.236 0-.44-.084-.615-.25-.174-.166-.26-.366-.26-.599zm17.602-4.143c.82 0 1.44-.233 1.86-.698.421-.466.632-1.148.632-2.047v-9.233c0-.2.09-.375.269-.525.18-.15.382-.224.606-.224h4.529c.224 0 .426.075.606.224.18.15.27.325.27.525v10.065c0 2.163-.792 3.943-2.374 5.34C52.746 57.302 50.625 58 47.965 58c-2.683 0-4.838-.704-6.466-2.113-1.627-1.409-2.44-3.183-2.44-5.324V40.498c0-.2.086-.375.26-.525.174-.15.373-.224.598-.224h4.529c.224 0 .43.075.614.224.186.15.278.325.278.525v9.233c0 .876.225 1.553.674 2.03.449.477 1.088.715 1.919.715zm17.416-3.86c0 1.01.351 1.87 1.053 2.58.701.71 1.557 1.064 2.567 1.064 1.01 0 1.866-.355 2.568-1.065.701-.71 1.052-1.57 1.052-2.578 0-1.01-.35-1.87-1.052-2.58-.702-.71-1.558-1.064-2.568-1.064s-1.866.355-2.567 1.065c-.702.71-1.053 1.57-1.053 2.579zm-.757-16.204c.247 0 .449.077.606.233.157.155.236.355.236.599v7.653c.583-.544 1.243-.954 1.978-1.231.735-.278 1.535-.416 2.399-.416 2.559 0 4.711.904 6.457 2.712 1.745 1.808 2.618 4.026 2.618 6.655 0 2.628-.873 4.847-2.618 6.654-1.746 1.808-3.898 2.712-6.457 2.712-.864 0-1.664-.138-2.4-.416-.734-.277-1.394-.693-1.977-1.247v.316c0 .244-.079.443-.236.599-.157.155-.36.233-.606.233h-4.58c-.247 0-.449-.078-.606-.233-.157-.156-.235-.355-.235-.6V33.245c0-.244.078-.444.235-.6.157-.155.36-.232.606-.232h4.58zM50.614 6.842c2.754 0 5.097.914 7.03 2.74 1.933 1.825 2.9 4.037 2.9 6.634 0 2.597-.967 4.808-2.9 6.634-1.933 1.825-4.276 2.738-7.03 2.738-2.753 0-5.097-.913-7.03-2.738-1.933-1.826-2.9-4.037-2.9-6.634 0-2.597.967-4.809 2.9-6.635 1.933-1.825 4.277-2.738 7.03-2.738zM68.036.002c.248 0 .45.077.607.233.158.155.236.355.236.6V8.49c.585-.544 1.245-.954 1.981-1.232.736-.277 1.537-.416 2.402-.416 2.563 0 4.718.904 6.465 2.713 1.748 1.81 2.622 4.03 2.622 6.66s-.874 4.85-2.622 6.659c-1.747 1.809-3.902 2.713-6.465 2.713-.865 0-1.666-.138-2.402-.416-.736-.277-1.396-.694-1.98-1.249v.317c0 .244-.08.444-.237.6-.157.154-.36.232-.607.232h-4.585c-.247 0-.45-.078-.607-.233-.157-.155-.236-.355-.236-.6V.834c0-.244.079-.444.236-.6.158-.155.36-.232.607-.232h4.585zm42.86 6.842c2.698 0 4.89.846 6.575 2.539 1.686 1.692 2.529 3.77 2.529 6.234v1.016c0 .388-.084.699-.253.932-.168.233-.41.35-.725.35H107.83c.168.82.578 1.47 1.23 1.947.652.478 1.439.716 2.36.716.618 0 1.189-.11 1.711-.333.523-.222 1.026-.571 1.51-1.048.213-.211.435-.328.665-.35.23-.022.47.044.717.2l3.034 1.964c.213.133.334.31.362.533.028.222-.03.433-.177.632-.719 1.033-1.792 1.86-3.22 2.481-1.427.621-2.989.932-4.686.932-2.866 0-5.217-.88-7.055-2.638-1.838-1.76-2.756-3.976-2.756-6.651 0-2.775.862-5.044 2.587-6.81 1.726-1.764 3.987-2.646 6.786-2.646zm-78.48 0c1.99 0 3.552.632 4.687 1.898 1.135 1.265 1.702 2.93 1.702 4.994V24.24c0 .244-.078.444-.236.6-.157.154-.36.232-.606.232h-4.586c-.247 0-.45-.078-.607-.233-.157-.155-.236-.355-.236-.6v-9.405c0-.81-.213-1.449-.64-1.915-.427-.466-1-.699-1.72-.699-.73 0-1.31.236-1.736.708-.427.471-.64 1.107-.64 1.906v9.406c0 .244-.08.444-.237.6-.157.154-.36.232-.607.232H22.37c-.247 0-.45-.078-.607-.233-.157-.155-.236-.355-.236-.6v-9.405c0-.81-.213-1.449-.64-1.915-.428-.466-1-.699-1.72-.699-.73 0-1.31.236-1.736.708-.427.471-.641 1.107-.641 1.906v9.406c0 .244-.079.444-.236.6-.157.154-.36.232-.607.232h-4.585c-.247 0-.45-.078-.607-.233-.157-.155-.236-.355-.236-.6V8.176c0-.233.081-.43.244-.591.163-.161.368-.242.616-.242h4.551c.248 0 .453.08.616.242.163.16.244.358.244.59v1.283c.562-.822 1.27-1.463 2.124-1.923.854-.46 1.781-.691 2.782-.691 1.169 0 2.172.222 3.009.666.837.444 1.486 1.093 1.947 1.948.753-.91 1.599-1.574 2.537-1.99.938-.416 2.015-.624 3.228-.624zm57.409 1.182c.247 0 .452.077.615.232.163.155.245.344.245.568v15.447c0 .224-.082.413-.245.568-.163.155-.368.232-.615.232h-4.552c-.247 0-.452-.077-.615-.232-.163-.155-.244-.344-.244-.568V8.825c0-.224.081-.413.244-.568.163-.155.368-.232.615-.232h4.552zM98.768 0c.247 0 .45.077.607.233.157.155.236.355.236.6v23.39c0 .232-.082.432-.245.598-.163.167-.357.25-.581.25h-4.569c-.236 0-.441-.083-.615-.25-.174-.166-.261-.366-.261-.599V.833c0-.244.078-.444.236-.6.157-.155.36-.232.606-.232h4.586zM50.614 12.57c-1.011 0-1.868.355-2.57 1.065-.703.71-1.054 1.57-1.054 2.58s.35 1.87 1.053 2.581c.703.71 1.56 1.065 2.571 1.065 1.012 0 1.869-.355 2.571-1.065.702-.71 1.054-1.57 1.054-2.58s-.352-1.87-1.054-2.58c-.702-.711-1.56-1.066-2.57-1.066zm21.806 0c-1.012 0-1.869.355-2.571 1.065-.703.71-1.054 1.57-1.054 2.58s.351 1.87 1.054 2.581c.702.71 1.559 1.065 2.57 1.065 1.012 0 1.869-.355 2.571-1.065.703-.71 1.054-1.57 1.054-2.58s-.351-1.87-1.054-2.58c-.702-.711-1.559-1.066-2.57-1.066zm38.578-.983c-.72 0-1.363.217-1.93.65-.568.433-.936.993-1.105 1.681h5.951c-.123-.688-.458-1.248-1.003-1.681-.545-.433-1.183-.65-1.913-.65zM87.566 0c.955 0 1.779.336 2.47 1.007.69.672 1.036 1.462 1.036 2.372 0 .91-.345 1.696-1.036 2.356-.691.66-1.515.99-2.47.99-.955 0-1.781-.33-2.478-.99-.697-.66-1.045-1.445-1.045-2.356 0-.91.348-1.7 1.045-2.372C85.785.336 86.61 0 87.566 0z"/>
        <path fill="#FF006E" d="M7 54.517c0 .948-.344 1.765-1.032 2.452C5.279 57.656 4.46 58 3.508 58c-.95 0-1.773-.344-2.467-1.03C.347 56.281 0 55.464 0 54.516c0-.947.347-1.77 1.04-2.469C1.736 51.35 2.558 51 3.509 51c.952 0 1.771.35 2.46 1.048.688.7 1.032 1.522 1.032 2.47z"/>
    </g>
</svg>
